<mxfile host="app.diagrams.net" modified="2022-09-17T06:19:44.959Z" agent="5.0 (Windows NT 10.0; Win64; x64) AppleWebKit/537.36 (KHTML, like Gecko) Chrome/105.0.0.0 Safari/537.36" etag="ahrzxOlcjAZJgwKgbrpm" version="20.3.2" type="github">
  <diagram id="Z12E4qdNCDFKli48JYyS" name="第 1 页">
    <mxGraphModel dx="1038" dy="539" grid="0" gridSize="10" guides="1" tooltips="1" connect="1" arrows="1" fold="1" page="0" pageScale="1" pageWidth="850" pageHeight="1100" math="0" shadow="0">
      <root>
        <mxCell id="0" />
        <mxCell id="1" parent="0" />
      </root>
    </mxGraphModel>
  </diagram>
</mxfile>
